# xmcd CD database file
#
# Track frame offsets:
#	182
#	16142
#	30092
#	52202
#	64837
#	78627
#	99432
#	110990
#	118737
#	135007
#	157697
#
# Disc length: 2468 seconds
#
# Revision: 3
# Processed by: cddbd v1.4PL0 Copyright (c) Steve Scherf et al.
# Submitted via: CDex 1.50
#
DISCID=8209a20b
DTITLE=Savoy Brown - Shake Down (1990)
DYEAR=1967
DGENRE=Blues
TTITLE0=Ain't Superstitious
TTITLE1=Let Me Love You Baby
TTITLE2=Black Night
TTITLE3=High Rise
TTITLE4=Rock Me Baby
TTITLE5=I Smell Trouble
TTITLE6=Pretty Woman
TTITLE7=Little Girl
TTITLE8=The Doormouse Rides The Rails
TTITLE9=It's All My Fault
TTITLE10=Shake 'Em On Down
EXTD=YEAR: 1967
EXTT0=
EXTT1=
EXTT2=
EXTT3=
EXTT4=
EXTT5=
EXTT6=
EXTT7=
EXTT8=
EXTT9=
EXTT10=
PLAYORDER=
